<svg xmlns="http://www.w3.org/2000/svg" width="230" height="92" fill="none"  xmlns:v="https://vecta.io/nano"><g clip-path="url(#C)"><path d="M51.54 92c3.173-1.417 6.5-2.99 9.828-4.88-20.74-3.148-49.916-13.458-58.66-34.47-.077-.236-.155-.394-.232-.63C7.352 73.977 31.42 86.018 51.54 92zm15.246-8.185c3.483-2.282 6.888-4.88 10.06-7.87-28.866.236-56.88-8.814-69.805-24.003C3.637 47.927 1.393 44.543 0 37.696c1.393 31.48 40.86 43.757 66.787 46.118zM80.794 72c3.637-3.935 6.965-8.342 9.75-13.458-22.365 4.25-93.64.63-89.54-33.84C-7.662 62.566 54.095 73.2 80.794 72z" fill="url(#A)"/><path d="M21.67 17.865C12.924 20 5.804 24.24 4.488 31.716 8.203 19.832 29.33 20 40.397 20.698c6.733.472 13.388 1.338 18.96 2.44a117.77 117.77 0 0 0-6.191-6.296c-4.256-.63-8.9-.866-13.543-.866-6.423.08-12.692.63-17.954 1.89zM4.334 30.772c2.94-16.527 29.485-17.943 44.73-17.235C46.588 11.57 43.957 9.6 41.17 7.87h-.31c-13.775 0-35.986 5.98-36.528 22.902zm1.16-17.314C1.393 20.226.31 32.188 6.578 38.09c-1.857-2.597-2.4-5.352-2.554-8.106-.155-4.33 1.316-8.814 4.334-12.435C14.936 9.365 26.4 6.06 36.528 5.115 32.58 3.07 28.402 1.338 23.836 0 16.56 1.8 9.364 7.083 5.495 13.458z" fill="url(#B)"/><g fill="#060d07"><path d="M43.106 49.974h-4.334v-10.23h-4.72v10.3h-4.334V35.887h13.388v14.087zm35.057.001h-5.185l-.697-2.125h-4.566l-.697 2.125h-5.185l5.34-14.166h5.65l5.34 14.166zm-9.287-5.588h2.322l-1.16-3.54-1.16 3.54zm20.664-4.8h-3.87v10.388h-4.334V39.586h-3.87V35.8H89.46v3.778h.077zm1.857-3.7h4.256v6.926l4.72-6.926h4.488v14.166h-4.256v-6.926l-4.72 6.926h-4.4V35.887h-.077zm29.408 14.088h-4.334V44.86h-4.798v5.115h-4.334V35.8h4.334v5.116h4.798V35.89h4.334v14.087zm10.678-4.723l-2.553 4.8h-4.334l2.554-4.722-5.418-9.444h5.185l2.4 4.722 2.476-4.722h5.108l-5.418 9.365zm23.45 4.8h-4.257V41.8l-3.637 6.296h-1.47l-3.637-6.296v8.264h-4.256V35.887h5.65l3.018 4.958 3.02-4.958H155v14.166h-.077z"/></g><g fill="#1e6b3d"><path d="M163.755 35.887l-6.423 14.166h1.548l1.78-3.856h7.584l1.78 3.856h1.548l-6.424-14.166h-1.393zm4.025 9.05h-6.656l3.328-7.24 3.328 7.24zm11.917-9.05h-5.495v14.166h1.316v-4.8h4.18c3.792 0 5.572-1.495 5.572-4.643.077-3.227-1.703-4.722-5.572-4.722zm4.334 4.8c0 2.36-1.316 3.384-4.257 3.384h-4.18v-6.926h4.102c3.018 0 4.334 1.023 4.334 3.54zm4.875 2.833h8.126v-1.26h-8.126v-5.116h8.823v-1.26H187.6V50.05h10.37V48.8h-9.055v-5.27zm22.83-1.26h-9.287v-6.375h-1.315V50.05h1.315v-6.53h9.287v6.532h1.316V35.887h-1.316v6.375zm11.764-6.373h-1.393l-6.423 14.166h1.547l1.78-3.856h7.584l1.78 3.856h1.548L223.5 35.887zm2.63 9.05h-6.655l3.327-7.24 3.328 7.24z"/></g><path d="M52.856 40.766l3.018 9.208h5.185l-5.417-14.087h-5.65L44.73 49.974h5.108l3.018-9.208z" fill="#060d07"/><g fill="#1e6b3d"><path d="M107.34 68.4V58.002h1.238v5.115l4.72-5.115h1.238l-4.798 5.194 5.03 5.194h-1.238l-4.953-5.115V68.4h-1.238zm13.85 0h-1.238V58.002h2.864c.386 0 .773 0 1.16.08l1.006.236c.62.236 1.084.55 1.393 1.023s.465 1.023.465 1.653c0 .55-.078 1.023-.3 1.417s-.542.708-.928 1.023a5.8 5.8 0 0 1-1.393.63c-.54.158-1.16.236-1.935.236-.3 0-.697 0-1.084-.08v4.17zm0-5.43a1.49 1.49 0 0 1 .542.08h.542c.62 0 1.083-.08 1.47-.157s.774-.236 1.006-.394.465-.394.542-.63c.155-.236.155-.55.155-.866 0-.393-.078-.708-.3-1.023-.155-.236-.464-.472-.85-.55-.232-.08-.464-.157-.774-.157s-.62-.08-1.006-.08h-1.47v3.778h.154zm8.98 5.43l4.18-10.388h1.083L139.6 68.4h-1.315l-1.238-3.148H132.8l-1.238 3.148h-1.393zm4.72-8.814l-1.316 3.542-.387.944h3.405l-.387-.944c-.464-1.023-.85-2.204-1.315-3.542zm14.316-.64a4 4 0 0 0-1.625.315c-.464.157-.93.472-1.316.787-.387.394-.62.787-.85 1.338s-.3 1.18-.3 1.9.078 1.338.3 1.9.464.944.85 1.338c.387.315.774.63 1.316.787a5.94 5.94 0 0 0 1.702.236h.542c.155 0 .387-.08.542-.08.232 0 .387-.08.542-.08.154-.08.3-.08.464-.157v1.102c-.3.157-.62.236-1.084.236s-.773.08-1.238.08a6.38 6.38 0 0 1-2.244-.393c-.62-.236-1.238-.55-1.625-1.023-.465-.472-.774-1.023-1.006-1.653s-.3-1.417-.3-2.204.155-1.574.387-2.204c.232-.708.62-1.26 1.084-1.73s1.006-.866 1.625-1.102a6.26 6.26 0 0 1 2.167-.394h.62c.232 0 .387.08.62.08.155 0 .387.08.542.157s.3.08.387.157v1.102l-1.007-.236c-.386-.236-.696-.236-1.083-.236zm9.44 3.54h5.34v-4.486h1.238V68.4h-1.238v-4.722h-5.34V68.4h-1.238V58.002h1.238v4.486zm22.21.708c0 .787-.077 1.495-.3 2.204-.232.63-.542 1.26-.93 1.73s-.93.866-1.47 1.102c-.62.236-1.24.394-1.935.394-.774 0-1.393-.157-2.012-.394s-1.084-.63-1.47-1.102-.696-1.023-.928-1.73c-.232-.63-.3-1.417-.3-2.204s.078-1.495.3-2.204c.232-.63.54-1.26.928-1.73s.93-.866 1.47-1.102c.62-.236 1.238-.394 1.934-.394a5.39 5.39 0 0 1 2.013.394c.62.237 1.083.63 1.47 1.102a5.24 5.24 0 0 1 .93 1.73c.154.708.3 1.417.3 2.204zm-1.238 0c0-.708-.077-1.338-.232-1.8-.155-.55-.464-.944-.774-1.338s-.697-.63-1.084-.787c-.464-.157-.928-.315-1.393-.315s-.928.08-1.393.315c-.464.157-.773.472-1.083.787-.3.394-.542.787-.774 1.338-.155.55-.232 1.18-.232 1.8s.077 1.338.3 1.8c.154.55.464.944.773 1.338s.697.63 1.084.787a4.33 4.33 0 0 0 1.393.236c.463 0 .93-.08 1.393-.236.387-.157.774-.472 1.083-.787.3-.394.542-.787.774-1.338a11.16 11.16 0 0 0 .155-1.81zm6.036 5.204l2.554-4.25c-.387-.08-.696-.236-.93-.472a2.38 2.38 0 0 1-.619-.63 3.77 3.77 0 0 1-.387-.787 3.45 3.45 0 0 1-.154-.944 3.73 3.73 0 0 1 .232-1.338c.155-.394.387-.708.696-1.023s.697-.472 1.084-.63c.464-.157.928-.236 1.548-.236h3.56v10.38h-1.315v-4.092h-2.554l-2.554 4.092h-1.16v-.08zm4.025-9.287c-.774 0-1.316.157-1.78.55a2.03 2.03 0 0 0-.62 1.495c0 .63.155 1.102.542 1.417s.93.472 1.703.472h2.4v-4.014h-2.244v.08zm11.3 9.287h-1.316V58.002h2.863c.387 0 .774 0 1.16.08l1.006.236c.62.236 1.084.55 1.393 1.023s.465 1.023.465 1.653c0 .55-.078 1.023-.3 1.417s-.542.708-.928 1.023a5.8 5.8 0 0 1-1.393.63c-.54.158-1.16.236-1.935.236-.3 0-.697 0-1.084-.08v4.17h.078zm0-5.43c.154 0 .3 0 .54.08h.542a7.11 7.11 0 0 0 1.47-.157c.386-.077.773-.236 1.006-.394s.464-.394.54-.63c.155-.236.155-.55.155-.866 0-.393-.077-.708-.3-1.023a1.37 1.37 0 0 0-.852-.551c-.232-.08-.464-.157-.774-.157s-.62-.08-1.006-.08h-1.47v3.778h.155zm14.162-4.023c-.542 0-1.084.08-1.626.315-.464.157-.928.472-1.315.787-.387.394-.62.787-.85 1.338s-.3 1.18-.3 1.9.077 1.338.3 1.9.464.944.85 1.338c.387.315.774.63 1.315.787s1.084.236 1.703.236h.542c.154 0 .387-.08.54-.08.233 0 .387-.08.542-.08s.3-.08.464-.157v1.102c-.3.157-.62.236-1.083.236s-.774.08-1.238.08a6.38 6.38 0 0 1-2.244-.393c-.62-.236-1.24-.55-1.626-1.023-.464-.472-.774-1.023-1.006-1.653s-.3-1.417-.3-2.204.155-1.574.387-2.204c.232-.708.62-1.26 1.083-1.73s1.006-.866 1.625-1.102a6.26 6.26 0 0 1 2.167-.394h.62c.233 0 .387.08.62.08.155 0 .387.08.542.157s.3.08.387.157v1.102l-1.006-.236c-.387-.236-.696-.236-1.083-.236zm7.428 9.453V58.002h1.24v5.115l4.72-5.115h1.24l-4.8 5.194L230 68.4h-1.24l-4.952-5.115V68.4h-1.24z"/></g></g><defs><linearGradient id="A" x1="6.748" y1="18.97" x2="70.934" y2="82.087" gradientUnits="userSpaceOnUse"><stop stop-color="#7a7d7e"/><stop offset=".178" stop-color="#5b7366"/><stop offset=".499" stop-color="#1a5d35"/><stop offset=".59" stop-color="#216b3c"/><stop offset=".865" stop-color="#369853"/><stop offset="1" stop-color="#40ab5d"/></linearGradient><linearGradient id="B" x1="2.126" y1="19.069" x2="59.313" y2="19.069" gradientUnits="userSpaceOnUse"><stop offset=".005" stop-color="#1e6b3d"/><stop offset=".179" stop-color="#256c42"/><stop offset=".432" stop-color="#38704f"/><stop offset=".73" stop-color="#577666"/><stop offset="1" stop-color="#7a7d7e"/></linearGradient><clipPath id="C"><path fill="#fff" d="M0 0h230v92H0z"/></clipPath></defs></svg>