<svg xmlns="http://www.w3.org/2000/svg" width="30" height="30" fill="#3ba358"  xmlns:v="https://vecta.io/nano"><path d="M29.417 23.855l-6.282-4.188a1.31 1.31 0 0 0-1.759.286l-1.83 2.352c-.393.5-1.1.657-1.663.345-1.24-.7-2.7-1.34-5.948-4.584S8.04 13.36 7.35 12.117c-.312-.564-.165-1.27.345-1.663l2.352-1.83a1.31 1.31 0 0 0 .285-1.759L6.145.583A1.31 1.31 0 0 0 4.382.187L1.755 1.763A3.21 3.21 0 0 0 .297 3.649c-.718 2.62-.863 8.397 8.397 17.657s15.038 9.115 17.657 8.396a3.21 3.21 0 0 0 1.886-1.457l1.576-2.627a1.31 1.31 0 0 0-.397-1.763zm-12.35-19.2c4.854.005 8.788 3.94 8.793 8.793 0 .286.232.517.517.517s.517-.23.517-.517a9.84 9.84 0 0 0-9.827-9.827c-.286 0-.517.232-.517.517a.52.52 0 0 0 .517.517zm0 3.103a5.7 5.7 0 0 1 5.69 5.69c0 .286.232.517.517.517a.52.52 0 0 0 .517-.517c-.004-3.712-3.012-6.72-6.724-6.724-.286 0-.517.232-.517.517a.52.52 0 0 0 .517.517zm0 3.104a2.59 2.59 0 0 1 2.586 2.586c0 .286.232.517.517.517a.52.52 0 0 0 .517-.517c-.002-2-1.622-3.618-3.62-3.62-.286 0-.517.232-.517.517a.52.52 0 0 0 .517.517z"/></svg>